<svg version="1.2" xmlns="http://www.w3.org/2000/svg" viewBox="0 0 352 240" width="352" height="240">
	<title>5451169-ai</title>
	<style>
		tspan { white-space:pre } 
		.t0 { font-size: 17px;fill: #313a3d;font-weight: bold;font-family: "Oxanium Roman" } 
		.t1 { font-size: 17px;fill: #d49000;font-weight: bold;font-family: "Oxanium Roman" } 
		.t2 { font-size: 11px;fill: #ff4355;font-weight: 500;font-family: "Montserrat-Medium", "Montserrat" } 
		.s3 { fill: #313a3d } 
		.s4 { fill: #d49100 } 
		.t5 { font-size: 25px;fill: #313a3d;font-weight: bold;font-family: "Oxanium Roman" } 
	</style>
	<g id="BACKGROUND">
	</g>
	<g id="OBJECTS">
		<g id="&lt;Group&gt;">
			<g id="&lt;Group&gt;">
				<text id="ELECTROAMBITION" style="transform: matrix(2,0,0,2,176,236.221)" >
					<tspan x="-87.9" y="0" class="t0">E</tspan><tspan  y="0" class="t0">L</tspan><tspan  y="0" class="t0">E</tspan><tspan  y="0" class="t0">C</tspan><tspan  y="0" class="t0">T</tspan><tspan  y="0" class="t0">R</tspan><tspan  y="0" class="t0">O</tspan><tspan  y="0" class="t1">A</tspan><tspan  y="0" class="t1">M</tspan><tspan  y="0" class="t1">B</tspan><tspan  y="0" class="t1">I</tspan><tspan  y="0" class="t1">T</tspan><tspan  y="0" class="t1">I</tspan><tspan  y="0" class="t1">O</tspan><tspan  y="0" class="t1">N</tspan><tspan  y="0" class="t1">
</tspan>
				</text>
				<text id="SUBTEXT HERE
" style="transform: matrix(2,0,0,2,172.019,305.735)" >
					<tspan x="-66" y="0" class="t2" dx="0 4 4 4 4 4 4 4 4 4 4 4 4" >SUBTEXT HERE
</tspan>
				</text>
			</g>
			<path id="&lt;Path&gt;" class="s3" d="m137.1 189.3c0.2 0.1 0.4 0.2 0.6 0.3q-0.3-0.2-0.6-0.3z"/>
			<g id="&lt;Group&gt;">
				<path id="&lt;Compound Path&gt;" fill-rule="evenodd" class="s3" d="m265.5 110.2c-7.2 45.2-46.3 79.8-93.5 79.8q-2.2 0-4.5-0.1 0 0 0 0 0 0 0 0 0 0 0 0-1.4-0.1-2.7-0.2c-9.5-1.3-13.6-9.3-13.2-21.2q0.1 0 0.2 0c-0.1-17.5 10.6-43.5 29.5-70.1-1.4-2.1-2.2-4.5-2.2-7.1 0-7 5.6-12.5 12.5-12.5 6.9 0 12.5 5.5 12.5 12.5 0 6.9-5.6 12.4-12.5 12.4q-1.4 0-2.6-0.2c-20.9 30.7-32.4 66.3-10.2 70.1q1.2 0 2.5 0.1c40 0 73.7-26.9 84.2-63.5zm-80.9-18.9c0 3.8 3.1 6.9 7 6.9 3.8 0 7-3.1 7-6.9 0-3.9-3.2-7-7-7-3.9 0-7 3.1-7 7z"/>
				<path id="&lt;Path&gt;" class="s3" d="m78.4 81.4l0.2-1.2q-0.1 0.6-0.2 1.2z"/>
				<path id="&lt;Path&gt;" class="s4" d="m137.1 183.3q0 0 0 0c-3.1-3.9-4-9.6-3.1-16.6 2.5-34.5 43.3-94.3 77.1-137.8-76.5 74-118.2 103.7-132.3 82.6 2.2 12.8 6.9 24.6 13.7 35.1q2.6 4 5.6 7.7c10.2 12.8 23.6 22.9 39 29z"/>
				<path id="&lt;Compound Path&gt;" fill-rule="evenodd" class="s3" d="m78.8 79.1c6.9-39.7 38.4-70.9 78.2-77.2-31 8.9-55 34.5-61.5 66.5-6.4 31.1 39 3.8 81.3-29q-0.4-1.2-0.5-2.6c0-3.9 3.2-7.1 7.2-7.1 3.9 0 7.1 3.2 7.1 7.1 0 3.9-3.2 7.1-7.1 7.1-1.4 0-2.6-0.4-3.7-1-93.2 77.1-102.4 52.2-101 36.2zm104.7-38.4c2.1 0 3.8-1.8 3.8-3.9 0-2.1-1.7-3.9-3.8-3.9-2.2 0-3.9 1.8-3.9 3.9 0 2.1 1.7 3.9 3.9 3.9z"/>
			</g>
		</g>
		<g id="&lt;Group&gt;">
			<g id="&lt;Group&gt;">
				<text id="ELECTRONICS
" style="transform: matrix(2,0,0,2,649.997,272.239)" >
					<tspan x="-97" y="0" class="t5">ELECTRONICS
</tspan>
				</text>
				<text id="SUBTEXT HERE
" style="transform: matrix(2,0,0,2,645.663,305.735)" >
					<tspan x="-66" y="0" class="t2" dx="0 4 4 4 4 4 4 4 4 4 4 4 4" >SUBTEXT HERE
</tspan>
				</text>
			</g>
			<path id="&lt;Path&gt;" class="s4" d="m734.9 55c-47-4.8-85.2-30.3-85.2-30.3 0 0-38.2 25.5-85.2 30.3 0 63.7 19.1 100 49.7 125.4v-34.5l-18.3-18.3v-14.3c-4.9-1.3-8.5-5.8-8.5-11.1 0-6.4 5.2-11.6 11.6-11.6 6.4 0 11.6 5.2 11.6 11.6 0 5.3-3.6 9.8-8.4 11.1v11.7l18.3 18.3v42.1c6.9 5.2 14.4 9.9 22.3 14.4v-86.7c-11.8-3.1-20.5-13.8-20.5-26.5 0-15.1 12.3-27.4 27.4-27.4 15.1 0 27.4 12.3 27.4 27.4 0 12.7-8.7 23.4-20.5 26.5v86.7c8.2-4.6 15.9-9.5 23-14.9v-41.6l18.3-18.3v-11.7c-4.8-1.3-8.4-5.8-8.4-11.1 0-6.4 5.2-11.6 11.6-11.6 6.3 0 11.5 5.2 11.5 11.6 0 5.3-3.5 9.8-8.4 11.1v14.3l-18.3 18.3v33.9c30.2-25.4 49-61.6 49-124.8z"/>
			<path id="&lt;Path&gt;" class="s3" d="m666.5 86.6c0-9.2-7.5-16.8-16.8-16.8-9.3 0-16.8 7.6-16.8 16.8 0 9.3 7.5 16.8 16.8 16.8 9.3 0 16.8-7.5 16.8-16.8z"/>
			<path id="&lt;Path&gt;" class="s3" d="m599 107.5c2.9 0 5.3-2.4 5.3-5.3 0-2.9-2.4-5.3-5.3-5.3-2.9 0-5.3 2.4-5.3 5.3 0 2.9 2.4 5.3 5.3 5.3z"/>
			<path id="&lt;Path&gt;" class="s3" d="m701.1 107.5c2.9 0 5.2-2.4 5.2-5.3 0-2.9-2.3-5.3-5.2-5.3-2.9 0-5.3 2.4-5.3 5.3 0 2.9 2.4 5.3 5.3 5.3z"/>
			<path id="&lt;Path&gt;" class="s3" d="m649.7 9.7c0 0 24.1 20.4 54 24.3q0.1-3.4 0.2-6.9c0.2-4.4-2.8-8.3-7.1-9.2-26.6-5.8-47.1-23.2-47.1-23.2 0 0-20.5 17.4-47.1 23.2-4.3 0.9-7.3 4.8-7.1 9.2q0.1 3.5 0.2 6.9c29.9-3.9 54-24.3 54-24.3z"/>
		</g>
		<g id="&lt;Group&gt;">
			<g id="&lt;Group&gt;">
				<text id="ELECTRONICS
" style="transform: matrix(2,0,0,2,1123.648,272.239)" >
					<tspan x="-97" y="0" class="t5">ELECTRONICS
</tspan>
				</text>
				<text id="SUBTEXT HERE
" style="transform: matrix(2,0,0,2,1119.314,305.733)" >
					<tspan x="-66" y="0" class="t2" dx="0 4 4 4 4 4 4 4 4 4 4 4 4" >SUBTEXT HERE
</tspan>
				</text>
			</g>
			<path id="&lt;Path&gt;" class="s4" d="m1213.1 166.5l-64.4-137.7c-2.7-5.8-8.5-9.5-14.9-9.5h-3.1-39.2-17.1c-2.8 0-5 2.3-5 5 0 2.8 2.2 5 5 5h48.5c2.8 0 5.1 2.3 5.1 5.1 0 2.7-2.3 5-5.1 5h-86c-2.8 0-5.1 2.2-5.1 5 0 2.8 2.3 5 5.1 5h35.5c1.7-2.7 4.7-4.5 8.1-4.5 5.3 0 9.6 4.3 9.6 9.5 0 5.3-4.3 9.6-9.6 9.6-3.4 0-6.4-1.8-8.1-4.5h-7.7c-2.8 0-5 2.2-5 5 0 2.8 2.2 5 5 5h58.2c2.8 0 5.1 2.3 5.1 5 0 2.8-2.3 5-5.1 5h-80.3c-2.7 0-5 2.3-5 5.1 0 2.7 2.3 5 5 5h88.1 6c1.7-2.8 4.7-4.7 8.2-4.7 5.2 0 9.5 4.3 9.5 9.5 0 5.3-4.3 9.6-9.5 9.6-3.4 0-6.3-1.8-8-4.4h-6.2-33.9c-1.4 0-2.7 0.6-3.6 1.5-0.9 0.9-1.4 2.2-1.4 3.5 0 2.8 2.2 5.1 5 5.1h26.1c2.8 0 5.1 2.2 5.1 5 0 1.4-0.6 2.6-1.5 3.5-0.9 0.9-2.2 1.5-3.6 1.5h-73.8c-2.8 0-5 2.3-5 5 0 2.8 2.2 5 5 5h44.1c1.7-2.7 4.7-4.5 8.1-4.5 5.3 0 9.5 4.3 9.5 9.6 0 5.2-4.2 9.5-9.5 9.5-3.4 0-6.4-1.8-8.1-4.5h-58.4-14.5c-2.8 0-5.1 2.2-5.1 5 0 2.8 2.3 5 5.1 5h14.5 95.9 20.3c2.8 0 5 2.3 5 5 0 2.8-2.2 5.1-5 5.1h-20.3-56.3c-2.8 0-5 2.2-5 5 0 2.8 2.2 5 5 5h42.2c1.7-2.7 4.7-4.5 8.1-4.5 5.3 0 9.5 4.3 9.5 9.5 0 5.3-4.2 9.6-9.5 9.6-3.4 0-6.4-1.8-8.1-4.6h-59.6c-2.7 0-5 2.3-5 5.1 0 2.7 2.3 5 5 5h34.5 39.2 67.5c12.1 0 20-12.5 14.9-23.5z"/>
			<path id="&lt;Path&gt;" class="s3" d="m1121.4 174.9c0 1.8 1.5 3.3 3.3 3.3 1.8 0 3.3-1.5 3.3-3.3 0-1.8-1.5-3.2-3.3-3.2-1.8 0-3.3 1.4-3.3 3.2z"/>
			<path id="&lt;Path&gt;" class="s3" d="m1144.9 91.2c-1.8 0-3.3 1.4-3.3 3.2 0 1.8 1.5 3.3 3.3 3.3 1.8 0 3.2-1.5 3.2-3.3 0-1.8-1.4-3.2-3.2-3.2z"/>
			<path id="&lt;Path&gt;" class="s3" d="m1080.5 57.7c1.8 0 3.3-1.5 3.3-3.3 0-1.7-1.5-3.2-3.3-3.2-1.8 0-3.2 1.5-3.2 3.2 0 1.8 1.4 3.3 3.2 3.3z"/>
			<path id="&lt;Path&gt;" class="s3" d="m1098 134.8c0 1.8 1.5 3.2 3.3 3.2 1.8 0 3.2-1.4 3.2-3.2 0-1.8-1.4-3.3-3.2-3.3-1.8 0-3.3 1.5-3.3 3.3z"/>
			<path id="&lt;Path&gt;" class="s3" d="m1031.9 179.9h-7.7c-2.8 0-5 2.3-5 5.1 0 2.7 2.2 5 5 5h7.7c2.8 0 5.1-2.3 5.1-5 0-2.8-2.3-5.1-5.1-5.1z"/>
			<path id="&lt;Path&gt;" class="s3" d="m1083.8 104.6c0-2.7-2.2-5-5-5q0 0 0 0 0 0 0 0c-2.8 0-5 2.3-5 5 0 2.8 2.3 5.1 5 5.1 2.8 0 5-2.3 5-5.1z"/>
			<path id="&lt;Path&gt;" class="s3" d="m1047 64.5c0-2.8-2.3-5-5-5-2.8 0-5 2.2-5 5 0 2.8 2.2 5 5 5 2.7 0 5-2.2 5-5z"/>
		</g>
		<g id="&lt;Group&gt;">
			<text id="ELECTRONICS
" style="transform: matrix(2,0,0,2,649.398,717.356)" >
				<tspan x="-97" y="0" class="t5">ELECTRONICS
</tspan>
			</text>
			<text id="SUBTEXT HERE
" style="transform: matrix(2,0,0,2,645.06,750.85)" >
				<tspan x="-66" y="0" class="t2" dx="0 4 4 4 4 4 4 4 4 4 4 4 4" >SUBTEXT HERE
</tspan>
			</text>
			<g id="&lt;Group&gt;">
				<path id="&lt;Compound Path&gt;" fill-rule="evenodd" class="s4" d="m648 518.7c-3 0.3-5.7 1.2-8.1 2.5-3.1 1.7-6.9 1.6-10-0.2-61.3-36.6-34.4-69.5 30.1-87.4-29.9 17.4-85.5 48.4 33.9 89.5 2.1-1.7 4.6-3 7.5-3.8 12.2-3.4 25 4.5 27.1 17.5 1.5 9.8-4 19.6-13.1 23.3-12 4.9-25.1-1.6-28.8-13.5q-4.8-1.7-9.3-3.4c-3.2-1.2-5.6-4-6.3-7.4q-0.4-1.9-1.2-3.9c-3.5-8.6-12.5-14.1-21.8-13.2zm56.8 13.1c-4.6 1.3-7.3 6-6 10.6 1.3 4.6 6 7.3 10.6 6.1 4.6-1.3 7.3-6.1 6.1-10.7-1.3-4.6-6.1-7.3-10.7-6z"/>
				<path id="&lt;Compound Path&gt;" fill-rule="evenodd" class="s3" d="m598.6 560.9c-12.2 3.5-25-4.5-27.1-17.4-1.5-9.8 4-19.6 13.1-23.3 12-4.9 25.1 1.6 28.8 13.4q4.8 1.8 9.3 3.5c3.2 1.2 5.6 4 6.3 7.3q0.4 2 1.2 4c3.5 8.6 12.5 14 21.8 13.1 3-0.3 5.7-1.1 8.1-2.4 3.1-1.7 6.9-1.7 10 0.2 61.3 36.6 34.4 69.5-30.1 87.4 29.9-17.4 85.5-48.4-33.9-89.5-2.1 1.7-4.6 3-7.5 3.7zm-3.4-12.4c4.6-1.3 7.3-6.1 6-10.7-1.3-4.6-6-7.3-10.6-6-4.6 1.3-7.3 6-6.1 10.6 1.3 4.6 6.1 7.3 10.7 6.1z"/>
				<path id="&lt;Path&gt;" class="s4" d="m652.3 548.5c4.6-1.3 7.3-6.1 6-10.7-1.2-4.6-6-7.3-10.6-6-4.6 1.3-7.3 6-6 10.6 1.2 4.6 6 7.3 10.6 6.1z"/>
				<path id="&lt;Path&gt;" class="s3" d="m690.1 505.1c16-12.4 34.5-3.6 43.6 11.4-11.5-29.6-33.8-27.5-46.9-20.5-50.5-17.1-41.7-34-23.2-45.8-36.7 19-22.4 39.1 26.5 54.9z"/>
				<path id="&lt;Path&gt;" class="s4" d="m609.9 575.2c-16 12.3-34.5 3.6-43.6-11.5 11.5 29.7 33.8 27.5 46.9 20.6 50.5 17.1 41.7 33.9 23.2 45.7 36.7-18.9 22.4-39.1-26.5-54.8z"/>
			</g>
		</g>
		<g id="&lt;Group&gt;">
			<g id="&lt;Group&gt;">
				<text id="ELECTRONICS
" style="transform: matrix(2,0,0,2,1123.646,717.356)" >
					<tspan x="-97" y="0" class="t5">ELECTRONICS
</tspan>
				</text>
				<text id="SUBTEXT HERE
" style="transform: matrix(2,0,0,2,1119.31,750.848)" >
					<tspan x="-66" y="0" class="t2" dx="0 4 4 4 4 4 4 4 4 4 4 4 4" >SUBTEXT HERE
</tspan>
				</text>
			</g>
			<g id="&lt;Group&gt;">
				<path id="&lt;Path&gt;" class="s3" d="m1129.3 473.7h60.9c-9.4-15.7-26.8-26-46.2-26h-73.9c-9.6 0-17.6 6.4-20.1 15.1h68.5z"/>
				<path id="&lt;Path&gt;" class="s4" d="m1133.8 607c0-3.3-2.6-5.9-5.8-5.9-3.2 0-5.8 2.6-5.8 5.9 0 3.2 2.6 5.8 5.8 5.8 3.2 0 5.8-2.6 5.8-5.8z"/>
				<path id="&lt;Path&gt;" class="s3" d="m1119.8 503.6c0-3.2-2.6-5.8-5.8-5.8-3.2 0-5.8 2.6-5.8 5.8 0 3.2 2.6 5.8 5.8 5.8 3.2 0 5.8-2.6 5.8-5.8z"/>
				<path id="&lt;Compound Path&gt;" fill-rule="evenodd" class="s3" d="m1253.2 530.1c0 7-5.7 12.8-12.8 12.8-5.8 0-10.8-4-12.3-9.4h-42.9c-3.1 3.7-6.8 7-10.8 9.7 14.4 9.7 23.7 26.4 23 45.3q-0.1 4.1-0.9 8h9.3c1.6-5.4 6.5-9.3 12.3-9.3 7.1 0 12.8 5.7 12.8 12.8 0 7.1-5.7 12.8-12.8 12.8-4.7 0-8.9-2.6-11.1-6.5q-0.7-1.3-1.2-2.8h-35.9v6.9h21.6c-8.9 17-27.1 28.4-47.5 28.4h-73.9c-10.4 0-19-7.6-20.6-17.5h48.4l10.8-10.9h7c1.5 5.4 6.5 9.4 12.3 9.4 7.1 0 12.8-5.8 12.8-12.8 0-7.1-5.7-12.8-12.8-12.8-5.8 0-10.8 3.9-12.3 9.3h-9.9l-10.8 10.8h-45.8v-17.1h-30c-1.5 5.4-6.5 9.4-12.3 9.4-7.1 0-12.8-5.8-12.8-12.8 0-7.1 5.7-12.8 12.8-12.8 5.8 0 10.8 3.9 12.3 9.3h69.9l21.8-21.8h15.7l10.8 10.8h20.2c1.5 5.4 6.4 9.3 12.3 9.3 7 0 12.8-5.7 12.8-12.8 0-7-5.8-12.8-12.8-12.8-5.9 0-10.8 4-12.3 9.3h-17.3l-10.8-10.8h-11.6l34.9-34.9h75.3c0.8-2.9 2.6-5.3 5-7 2-1.5 4.6-2.3 7.3-2.3 2.8 0 5.3 0.8 7.4 2.3 2.3 1.7 4.1 4.1 4.9 7q0.5 1.6 0.5 3.5zm-240.5 63.7c0-3.3-2.6-5.9-5.8-5.9-3.2 0-5.9 2.6-5.9 5.9 0 3.2 2.7 5.8 5.9 5.8 3.2 0 5.8-2.6 5.8-5.8zm199.6 6.2c0 3.2 2.6 5.8 5.8 5.8 3.3 0 5.9-2.6 5.9-5.8 0-3.2-2.6-5.8-5.9-5.8-3.2 0-5.8 2.6-5.8 5.8zm34-69.9c0-3.3-2.7-5.9-5.9-5.9-3.2 0-5.8 2.6-5.8 5.9 0 3.2 2.6 5.8 5.8 5.8 3.2 0 5.9-2.6 5.9-5.8z"/>
				<path id="&lt;Path&gt;" class="s4" d="m1175.7 575.8c0-3.2-2.6-5.8-5.8-5.8-3.2 0-5.9 2.6-5.9 5.8 0 3.2 2.7 5.9 5.9 5.9 3.2 0 5.8-2.7 5.8-5.9z"/>
				<path id="&lt;Path&gt;" class="s3" d="m1079.9 550.2c0-3.2-2.7-5.8-5.9-5.8-3.2 0-5.8 2.6-5.8 5.8 0 3.2 2.6 5.8 5.8 5.8 3.2 0 5.9-2.6 5.9-5.8z"/>
				<path id="&lt;Compound Path&gt;" fill-rule="evenodd" class="s4" d="m1014.4 521.4c0-7.1 5.7-12.8 12.8-12.8 5.8 0 10.7 3.9 12.3 9.3h9.7 30.1l10.8-10.8h11.6c1.5 5.4 6.4 9.3 12.3 9.3 7.1 0 12.8-5.7 12.8-12.8 0-7.1-5.7-12.8-12.8-12.8-5.9 0-10.8 4-12.3 9.3h-14.5l-10.8 10.8h-27.2v-41.1h66.4l10.8 10.8h75.8c1.5-5.3 6.4-9.3 12.3-9.3 7 0 12.8 5.7 12.8 12.8 0 7.1-5.8 12.8-12.8 12.8-5.9 0-10.8-3.9-12.3-9.3h-6.2q1.2 5 1.4 10.4c0.3 7.7-1.1 15-3.8 21.6h-43.6l-63.8 63.7h-37v-29.6h12.5c1.5 5.3 6.5 9.3 12.3 9.3 7.1 0 12.8-5.8 12.8-12.8 0-7.1-5.7-12.8-12.8-12.8-5.8 0-10.8 3.9-12.3 9.3h-12.5v-21.8h-9.7c-1.6 5.3-6.5 9.3-12.3 9.3-7.1 0-12.8-5.8-12.8-12.8zm194.3-37.3c0 3.2 2.6 5.8 5.8 5.8 3.2 0 5.8-2.6 5.8-5.8 0-3.2-2.6-5.8-5.8-5.8-3.2 0-5.8 2.6-5.8 5.8zm-187.4 37.3c0 3.2 2.6 5.8 5.9 5.8 3.2 0 5.8-2.6 5.8-5.8 0-3.2-2.6-5.8-5.8-5.8-3.3 0-5.9 2.6-5.9 5.8z"/>
			</g>
		</g>
		<g id="&lt;Group&gt;">
			<g id="&lt;Group&gt;">
				<text id="ELECTRONICS
" style="transform: matrix(2,0,0,2,176.353,717.356)" >
					<tspan x="-97" y="0" class="t5">ELECTRONICS
</tspan>
				</text>
				<text id="SUBTEXT HERE
" style="transform: matrix(2,0,0,2,172.019,750.848)" >
					<tspan x="-66" y="0" class="t2" dx="0 4 4 4 4 4 4 4 4 4 4 4 4" >SUBTEXT HERE
</tspan>
				</text>
			</g>
			<g id="&lt;Group&gt;">
				<path id="&lt;Compound Path&gt;" fill-rule="evenodd" class="s4" d="m233.2 573.6v26h-12v-14h-17.2c-2.1 3.9-6.2 6.5-11 6.5-6.9 0-12.5-5.6-12.5-12.5 0-6.9 5.6-12.5 12.5-12.5 4.8 0 8.9 2.6 11 6.5zm-36.8 6c0-1.8-1.5-3.3-3.3-3.3-1.8 0-3.3 1.5-3.3 3.3 0 1.9 1.5 3.4 3.3 3.4 1.8 0 3.3-1.5 3.3-3.4z"/>
				<path id="&lt;Compound Path&gt;" fill-rule="evenodd" class="s4" d="m80 541.7q-1.8-0.6-3.9-0.6c-3 0-5.9 1.1-8 2.9q-0.1-1-0.1-1.9c0-52.7 42.9-95.6 95.6-95.6h78.6c2.1-3.9 6.3-6.6 11-6.6 6.9 0 12.5 5.6 12.5 12.6 0 6.9-5.6 12.5-12.5 12.5-4.7 0-8.9-2.6-11-6.5h-78.6c-46 0-83.4 37.3-83.6 83.2zm173.2-92.6c-1.8 0-3.3 1.5-3.3 3.4 0 1.8 1.5 3.3 3.3 3.3 1.9 0 3.4-1.5 3.4-3.3 0-1.9-1.5-3.4-3.4-3.4z"/>
				<path id="&lt;Path&gt;" class="s4" d="m221.2 625.7h-57.6c-38.5 0-70.9-26.2-80.6-61.6-2 1.3-4.3 2-6.9 2-1.9 0-3.7-0.4-5.3-1.2 10.3 41.7 48 72.8 92.8 72.8h69.6v-18.8h-12z"/>
				<path id="&lt;Compound Path&gt;" fill-rule="evenodd" class="s3" d="m76.1 541.1q2.1 0 3.9 0.6c3.1 1 5.6 3.1 7.1 5.9h7.2q-0.3-2.7-0.3-5.5c0-38.4 31.3-69.6 69.6-69.6h27.5c2.2-3.9 6.3-6.5 11-6.5 7 0 12.6 5.6 12.6 12.5 0 6.9-5.6 12.5-12.6 12.5-4.7 0-8.8-2.6-11-6.5h-27.5c-31.7 0-57.6 25.8-57.6 57.6q0 2.8 0.3 5.5h103.2l-20.3-20.3h-10.2c-2.2 3.9-6.3 6.5-11 6.5-7 0-12.6-5.6-12.6-12.5 0-6.9 5.6-12.6 12.6-12.6 4.7 0 8.8 2.7 11 6.6h15.1l32.4 32.3h32.7v64h-95.6c-29.6 0-55-18.6-65-44.7h13.1c9.3 19.3 29.1 32.7 51.9 32.7h83.6v-40h-160.1c-1 1.8-2.4 3.4-4.1 4.5-2 1.3-4.3 2-6.9 2-1.9 0-3.7-0.4-5.3-1.2-4.3-2-7.2-6.3-7.2-11.3 0-3.9 1.7-7.3 4.5-9.6 2.1-1.8 5-2.9 8-2.9zm91.9-16.5c1.8 0 3.3-1.5 3.3-3.3 0-1.9-1.5-3.4-3.3-3.4-1.9 0-3.4 1.5-3.4 3.4 0 1.8 1.5 3.3 3.4 3.3zm34.1-49.4c-1.8 0-3.3 1.4-3.3 3.3 0 1.8 1.5 3.3 3.3 3.3 1.9 0 3.4-1.5 3.4-3.3 0-1.9-1.5-3.3-3.4-3.3zm-126 75.1c-1.8 0-3.3 1.5-3.3 3.3 0 1.8 1.5 3.3 3.3 3.3 1.9 0 3.4-1.5 3.4-3.3 0-1.8-1.5-3.3-3.4-3.3z"/>
			</g>
		</g>
	</g>
</svg>